# xmcd
#
# Track frame offsets: 
#        150
#        10998
#        21622
#        33168
#        42418
#        56632
#        69434
#        77585
#        86807
#        97510
#        114021
#        122981
#        133521
#        150347
#
# Disc length: 2096 seconds
#
# Revision: 1
# Processed by: cddbd v1.5.2PL0 Copyright (c) Steve Scherf et al.
# Submitted via: ExactAudioCopyFreeDBPlugin 1.0
#
DISCID=a5082e0e
DTITLE=The Greenbriar Boys - Best of the Vanguard Years
DYEAR=2002
DGENRE=Bluegrass
TTITLE0=Katy Clyne
TTITLE1=I'm Coming Back But I Don't Know When
TTITLE2=Stewball
TTITLE3=Rawhide
TTITLE4=Banks Of The Ohio
TTITLE5=Pal Of Mine
TTITLE6=We Shall Not Be Moved
TTITLE7=We Need A Lot More Of Jesus
TTITLE8=Girl On The Greenbriar Shore
TTITLE9=Life Is Like A Mountain Railway
TTITLE10=Down The Road
TTITLE11=Rosie's Gone Again
TTITLE12=Amelia Earhart's Last Flight
TTITLE13=Other Side Of Jordan
EXTD=
EXTT0=
EXTT1=
EXTT2=
EXTT3=
EXTT4=
EXTT5=
EXTT6=
EXTT7=
EXTT8=
EXTT9=
EXTT10=
EXTT11=
EXTT12=
EXTT13=
PLAYORDER=
